<?xml version="1.0" standalone="no"?><!DOCTYPE svg PUBLIC "-//W3C//DTD SVG 1.1//EN" "http://www.w3.org/Graphics/SVG/1.1/DTD/svg11.dtd"><svg t="1501043015428" class="icon" style="" viewBox="0 0 1024 1024" version="1.1" xmlns="http://www.w3.org/2000/svg" p-id="1308" xmlns:xlink="http://www.w3.org/1999/xlink" width="200" height="200"><defs><style type="text/css"></style></defs><path d="M528.3 269.2c57.3 0 103.7-46.4 103.7-103.7S585.5 61.8 528.3 61.8s-103.7 46.4-103.7 103.7S471 269.2 528.3 269.2z m0 138.3c-57.3 0-103.7 46.4-103.7 103.7S471 614.9 528.3 614.9 632 568.5 632 511.2s-46.5-103.7-103.7-103.7z m0 345.7c-57.3 0-103.7 46.4-103.7 103.7S471 960.6 528.3 960.6 632 914.2 632 856.9s-46.5-103.7-103.7-103.7z" p-id="1309"></path></svg>