<?xml version="1.0" encoding="UTF-8"?>
<svg width="586px" height="780px" viewBox="0 0 586 780" version="1.1" xmlns="http://www.w3.org/2000/svg" xmlns:xlink="http://www.w3.org/1999/xlink">
    <!-- Generator: Sketch 45.1 (43504) - http://www.bohemiancoding.com/sketch -->
    <title>Shape</title>
    <desc>Created with Sketch.</desc>
    <defs></defs>
    <g id="Page-1" stroke="none" stroke-width="1" fill="none" fill-rule="evenodd">
        <g id="删-除" fill-rule="nonzero" fill="#000000">
            <path d="M511.918024,97.533726 L73.285433,97.533726 C32.902069,97.533726 0.179489,130.253942 0.179489,170.636674 L0.179489,195.004665 L585.022944,195.004665 L585.022944,170.636674 C585.023968,130.253942 552.302411,97.533726 511.918024,97.533726 L511.918024,97.533726 Z M384.221575,48.798768 L394.977987,125.708415 L190.22547,125.708416 L200.980859,48.798769 L384.221575,48.798768 L384.221575,48.798768 Z M390.076149,0.063811 L195.128331,0.063811 C175.01954,0.063811 156.314783,16.340519 153.506716,36.281687 L139.2525,138.250056 C136.46797,158.166665 150.651575,174.444396 170.760365,174.444396 L414.445138,174.444396 C434.552905,174.444396 448.737534,158.167688 445.929466,138.22652 L431.674227,36.258151 C428.887651,16.340519 410.183917,0.063811 390.076149,0.063811 L390.076149,0.063811 Z M524.102007,243.738599 L61.100427,243.738599 C34.30508,243.738599 14.338534,265.58414 16.765916,292.283222 L56.699007,731.278511 C59.101828,757.978616 83.043058,779.823134 109.838405,779.823134 L475.366076,779.823134 C502.161423,779.823134 526.101629,757.977593 528.505474,731.278511 L568.437541,292.283222 C570.8639,265.58414 550.897354,243.738599 524.102007,243.738599 L524.102007,243.738599 Z M195.128331,682.353219 L122.022387,682.353219 L97.653398,341.208515 L195.127307,341.208515 L195.127308,682.353219 L195.128331,682.353219 Z M341.339195,682.353219 L243.865286,682.353219 L243.865286,341.208515 L341.339195,341.208515 L341.339195,682.353219 Z M463.18107,682.353219 L390.075126,682.353219 L390.075126,341.208515 L487.549035,341.208515 L463.18107,682.353219 Z" id="Shape"></path>
        </g>
    </g>
</svg>