<?xml version="1.0" encoding="UTF-8"?>
<svg width="40px" height="40px" viewBox="0 0 40 40" version="1.1" xmlns="http://www.w3.org/2000/svg" xmlns:xlink="http://www.w3.org/1999/xlink">
    <!-- Generator: Sketch 44.1 (41455) - http://www.bohemiancoding.com/sketch -->
    <title>Group 2</title>
    <desc>Created with Sketch.</desc>
    <defs></defs>
    <g id="Page-1" stroke="none" stroke-width="1" fill="none" fill-rule="evenodd">
        <g id="登录-未填写" transform="translate(-100.000000, -728.000000)" fill="#999999">
            <g id="Group-2" transform="translate(100.000000, 728.000000)">
                <path d="M39.804878,38.1842927 C39.8972683,38.3565854 39.9609756,38.5426829 39.9609756,38.7512195 C39.9609756,39.4405366 39.3902927,40 38.6872195,40 C37.9841463,40 37.4121951,39.4405366 37.4121951,38.7512195 L37.3809756,38.7512195 C35.6301951,30.8963902 28.5096585,25.0146341 19.9804878,25.0146341 C11.4500488,25.0146341 4.32702439,30.8963902 2.57873171,38.7512195 L2.5462439,38.7512195 C2.5462439,39.4405366 1.97434146,40 1.2724878,40 C0.570682927,40 0,39.4405366 0,38.7512195 C0,38.5426829 0.0624390244,38.3565854 0.156097561,38.1842927 C1.73082927,31.1860976 6.99190244,25.5440976 13.8889268,23.4299512 C9.95029268,21.3044878 7.25043902,17.2459512 7.25043902,12.5268293 C7.25043902,5.62980488 12.9498537,0.0390243902 19.9804878,0.0390243902 C27.0098537,0.0390243902 32.7093171,5.62980488 32.7093171,12.5268293 C32.7093171,17.2459512 30.0094634,21.3044878 26.0720488,23.4286829 C32.9690732,25.5440976 38.226439,31.184878 39.804878,38.1842927 Z M30.1630244,12.5268293 C30.1630244,7.00970732 25.6037561,2.53658537 19.9804878,2.53658537 C14.3547317,2.53658537 9.79668293,7.00970732 9.79668293,12.5268293 C9.79668293,18.0439512 14.356,22.5158049 19.9804878,22.5158049 C25.6037561,22.5158049 30.1630244,18.0439512 30.1630244,12.5268293 L30.1630244,12.5268293 Z" id="Fill-3"></path>
            </g>
        </g>
    </g>
</svg>