<?xml version="1.0" encoding="UTF-8"?>
<svg width="32px" height="43px" viewBox="0 0 32 43" version="1.1" xmlns="http://www.w3.org/2000/svg" xmlns:xlink="http://www.w3.org/1999/xlink">
    <!-- Generator: Sketch 44.1 (41455) - http://www.bohemiancoding.com/sketch -->
    <title>Group</title>
    <desc>Created with Sketch.</desc>
    <defs></defs>
    <g id="Page-1" stroke="none" stroke-width="1" fill="none" fill-rule="evenodd">
        <g id="登录-未填写" transform="translate(-104.000000, -877.000000)" fill="#999999">
            <g id="Group" transform="translate(104.000000, 877.000000)">
                <path d="M26.6498923,16.0215595 L23.987106,16.0215595 L23.987106,10.2773768 C23.987106,6.10375204 20.4037847,2.70773246 15.9987993,2.70773246 C11.5937618,2.70773246 8.01049266,6.10380424 8.01049266,10.2773768 L8.01049266,16.0215595 L5.34770636,16.0215595 L5.34770636,10.2773768 C5.34770636,4.63457096 10.1258858,0.0449461664 15.9987993,0.0449461664 C21.8717129,0.0449461664 26.6498923,4.63457096 26.6498923,10.2773768 L26.6498923,16.0215595" id="Fill-4"></path>
                <path d="M15.9987993,42.6492659 C7.18940294,42.6492659 0.0221859706,35.4826754 0.0221859706,26.6726525 L0.0221859706,18.6843458 L31.9754127,18.6843458 L31.9754127,26.6726525 C31.9754127,35.4826754 24.8081436,42.6492659 15.9987993,42.6492659 Z M2.68492007,21.3470799 L2.68492007,26.6726003 C2.68492007,34.0134421 8.65727896,39.9864274 15.9987471,39.9864274 C23.3402153,39.9864274 29.3125742,34.0133899 29.3125742,26.6726003 L29.3125742,21.3470799 L2.68492007,21.3470799 L2.68492007,21.3470799 Z" id="Fill-1"></path>
                <path d="M15.9987993,35.9923263 C13.8079739,35.9923263 12.0228646,34.2188581 12.004646,32.032 L12.004646,29.3353866 C12.004646,27.1328679 13.7962806,25.3412333 15.9987993,25.3412333 C18.2013181,25.3412333 19.9929527,27.1328679 19.9929527,29.3353866 L19.9929527,32.032 C19.9747341,34.2188581 18.1896248,35.9923263 15.9987993,35.9923263 Z M15.9987993,28.0040196 C15.2648352,28.0040196 14.6674323,28.6007961 14.6674323,29.3353866 L14.6674323,31.9981729 C14.6674323,32.7328157 15.2648352,33.32954 15.9987993,33.32954 C16.7327113,33.32954 17.3301664,32.7327635 17.3301664,31.9981729 L17.3301664,29.3353866 C17.3301664,28.6007961 16.7327113,28.0040196 15.9987993,28.0040196 L15.9987993,28.0040196 Z" id="Fill-3"></path>
            </g>
        </g>
    </g>
</svg>